<svg width="2707" height="801" viewBox="0 0 2707 801" fill="none" xmlns="http://www.w3.org/2000/svg">
<path d="M0 87L348 293.481V801L0 594.519L0 87Z" fill="#C3E2FF"/>
<path d="M412.519 0L760.519 206.481L348 293.481L0 87L412.519 0Z" fill="white"/>
<path d="M369 775.109V310.514L739.519 232.372V696.967L369 775.109Z" stroke="#E1F1FF" stroke-width="42"/>
<path d="M859.783 621V266.818H999.519C1026.38 266.818 1049.27 271.949 1068.18 282.21C1087.08 292.356 1101.5 306.479 1111.41 324.58C1121.44 342.566 1126.46 363.319 1126.46 386.839C1126.46 410.359 1121.38 431.112 1111.24 449.097C1101.09 467.083 1086.39 481.091 1067.14 491.122C1048 501.152 1024.83 506.168 997.617 506.168H908.553V446.157H985.511C999.923 446.157 1011.8 443.678 1021.14 438.721C1030.59 433.648 1037.62 426.673 1042.24 417.795C1046.96 408.802 1049.33 398.483 1049.33 386.839C1049.33 375.079 1046.96 364.818 1042.24 356.055C1037.62 347.178 1030.59 340.318 1021.14 335.475C1011.68 330.518 999.692 328.039 985.165 328.039H934.667V621H859.783ZM1243.19 626.188C1216.33 626.188 1193.09 620.481 1173.49 609.067C1154.01 597.538 1138.96 581.512 1128.36 560.99C1117.75 540.352 1112.45 516.429 1112.45 489.219C1112.45 461.78 1117.75 437.799 1128.36 417.276C1138.96 396.639 1154.01 380.613 1173.49 369.199C1193.09 357.67 1216.33 351.905 1243.19 351.905C1270.05 351.905 1293.23 357.67 1312.71 369.199C1332.31 380.613 1347.41 396.639 1358.02 417.276C1368.63 437.799 1373.93 461.78 1373.93 489.219C1373.93 516.429 1368.63 540.352 1358.02 560.99C1347.41 581.512 1332.31 597.538 1312.71 609.067C1293.23 620.481 1270.05 626.188 1243.19 626.188ZM1243.53 569.118C1255.76 569.118 1265.96 565.659 1274.14 558.741C1282.33 551.709 1288.5 542.139 1292.65 530.033C1296.92 517.928 1299.05 504.15 1299.05 488.701C1299.05 473.251 1296.92 459.474 1292.65 447.368C1288.5 435.262 1282.33 425.693 1274.14 418.66C1265.96 411.627 1255.76 408.11 1243.53 408.11C1231.2 408.11 1220.82 411.627 1212.41 418.66C1204.1 425.693 1197.82 435.262 1193.55 447.368C1189.4 459.474 1187.33 473.251 1187.33 488.701C1187.33 504.15 1189.4 517.928 1193.55 530.033C1197.82 542.139 1204.1 551.709 1212.41 558.741C1220.82 565.659 1231.2 569.118 1243.53 569.118ZM1449.24 266.818V621H1375.57V266.818H1449.24ZM1535.67 266.818V621H1461.99V266.818H1535.67ZM1593.9 720.614C1584.56 720.614 1575.8 719.864 1567.61 718.365C1559.54 716.982 1552.86 715.195 1547.55 713.004L1564.16 658.009C1572.8 660.661 1580.58 662.102 1587.5 662.333C1594.54 662.563 1600.59 660.949 1605.66 657.49C1610.85 654.032 1615.06 648.152 1618.29 639.85L1622.61 628.609L1527.32 355.364H1604.8L1659.79 550.44H1662.56L1718.07 355.364H1796.07L1692.82 649.708C1687.87 664.005 1681.12 676.456 1672.59 687.063C1664.17 697.786 1653.51 706.029 1640.6 711.794C1627.68 717.674 1612.12 720.614 1593.9 720.614ZM1928.8 355.364V410.705H1768.83V355.364H1928.8ZM1805.14 291.722H1878.82V539.372C1878.82 546.174 1879.85 551.478 1881.93 555.283C1884.01 558.972 1886.89 561.566 1890.58 563.065C1894.38 564.564 1898.76 565.313 1903.72 565.313C1907.18 565.313 1910.64 565.025 1914.1 564.449C1917.56 563.757 1920.21 563.238 1922.05 562.892L1933.64 617.714C1929.95 618.867 1924.76 620.193 1918.07 621.692C1911.39 623.306 1903.26 624.286 1893.69 624.632C1875.93 625.324 1860.37 622.96 1847 617.541C1833.74 612.122 1823.42 603.706 1816.04 592.292C1808.66 580.878 1805.03 566.466 1805.14 549.057V291.722ZM2047.69 626.188C2020.83 626.188 1997.59 620.481 1977.99 609.067C1958.51 597.538 1943.46 581.512 1932.86 560.99C1922.25 540.352 1916.95 516.429 1916.95 489.219C1916.95 461.78 1922.25 437.799 1932.86 417.276C1943.46 396.639 1958.51 380.613 1977.99 369.199C1997.59 357.67 2020.83 351.905 2047.69 351.905C2074.55 351.905 2097.73 357.67 2117.21 369.199C2136.81 380.613 2151.92 396.639 2162.52 417.276C2173.13 437.799 2178.43 461.78 2178.43 489.219C2178.43 516.429 2173.13 540.352 2162.52 560.99C2151.92 581.512 2136.81 597.538 2117.21 609.067C2097.73 620.481 2074.55 626.188 2047.69 626.188ZM2048.04 569.118C2060.26 569.118 2070.46 565.659 2078.65 558.741C2086.83 551.709 2093 542.139 2097.15 530.033C2101.42 517.928 2103.55 504.15 2103.55 488.701C2103.55 473.251 2101.42 459.474 2097.15 447.368C2093 435.262 2086.83 425.693 2078.65 418.66C2070.46 411.627 2060.26 408.11 2048.04 408.11C2035.7 408.11 2025.32 411.627 2016.91 418.66C2008.61 425.693 2002.32 435.262 1998.06 447.368C1993.91 459.474 1991.83 473.251 1991.83 488.701C1991.83 504.15 1993.91 517.928 1998.06 530.033C2002.32 542.139 2008.61 551.709 2016.91 558.741C2025.32 565.659 2035.7 569.118 2048.04 569.118ZM2300.09 626.188C2273.23 626.188 2250 620.481 2230.4 609.067C2210.91 597.538 2195.87 581.512 2185.26 560.99C2174.65 540.352 2169.35 516.429 2169.35 489.219C2169.35 461.78 2174.65 437.799 2185.26 417.276C2195.87 396.639 2210.91 380.613 2230.4 369.199C2250 357.67 2273.23 351.905 2300.09 351.905C2326.96 351.905 2350.13 357.67 2369.61 369.199C2389.21 380.613 2404.32 396.639 2414.93 417.276C2425.53 437.799 2430.84 461.78 2430.84 489.219C2430.84 516.429 2425.53 540.352 2414.93 560.99C2404.32 581.512 2389.21 597.538 2369.61 609.067C2350.13 620.481 2326.96 626.188 2300.09 626.188ZM2300.44 569.118C2312.66 569.118 2322.86 565.659 2331.05 558.741C2339.23 551.709 2345.4 542.139 2349.55 530.033C2353.82 517.928 2355.95 504.15 2355.95 488.701C2355.95 473.251 2353.82 459.474 2349.55 447.368C2345.4 435.262 2339.23 425.693 2331.05 418.66C2322.86 411.627 2312.66 408.11 2300.44 408.11C2288.1 408.11 2277.73 411.627 2269.31 418.66C2261.01 425.693 2254.72 435.262 2250.46 447.368C2246.31 459.474 2244.23 473.251 2244.23 488.701C2244.23 504.15 2246.31 517.928 2250.46 530.033C2254.72 542.139 2261.01 551.709 2269.31 558.741C2277.73 565.659 2288.1 569.118 2300.44 569.118ZM2506.15 467.429V621H2432.48V355.364H2502.69V402.23H2505.8C2511.68 386.781 2521.54 374.56 2535.37 365.567C2549.21 356.459 2565.99 351.905 2585.7 351.905C2604.15 351.905 2620.23 355.94 2633.95 364.011C2647.67 372.081 2658.34 383.611 2665.94 398.599C2673.55 413.472 2677.36 431.227 2677.36 451.864V621H2603.69V465.008C2603.8 448.751 2599.65 436.069 2591.23 426.961C2582.82 417.737 2571.23 413.126 2556.47 413.126C2546.56 413.126 2537.8 415.259 2530.19 419.524C2522.69 423.79 2516.81 430.016 2512.55 438.202C2508.4 446.273 2506.26 456.015 2506.15 467.429Z" fill="white"/>
</svg>
